<svg width="480" height="374" viewBox="0 0 480 374" fill="none" xmlns="http://www.w3.org/2000/svg">
<g clip-path="url(#clip0_94_46)">
<path d="M39.8609 347.208C37.5132 347.208 35.149 346.86 32.7683 346.133C30.371 345.422 28.2052 344.298 26.2874 342.777V347.208H12.0691V261.104H26.2709V295.146C28.2052 293.625 30.338 292.418 32.6856 291.558C35.0333 290.698 37.414 290.252 39.8609 290.252C43.7296 290.252 47.3338 290.996 50.7065 292.467C54.0627 293.939 57.0221 295.972 59.5681 298.568C62.1142 301.164 64.1147 304.189 65.6027 307.661C67.0741 311.116 67.8181 314.836 67.8181 318.804C67.8181 322.772 67.0741 326.459 65.6027 329.881C64.1312 333.287 62.1142 336.296 59.5681 338.892C57.0221 341.487 54.0792 343.521 50.7065 344.992C47.3503 346.464 43.7296 347.208 39.8609 347.208V347.208ZM39.8609 304.619C38.0258 304.619 36.2733 304.999 34.5869 305.76C32.9006 306.52 31.4622 307.545 30.2388 308.818C29.0153 310.091 28.0564 311.596 27.3455 313.315C26.6346 315.051 26.2709 316.886 26.2709 318.804C26.2709 322.673 27.5935 325.963 30.2388 328.658C32.884 331.353 36.0914 332.708 39.8609 332.708C43.6304 332.708 46.8543 331.353 49.5492 328.658C52.2441 325.963 53.5998 322.673 53.5998 318.804C53.5998 316.87 53.236 315.035 52.5251 313.315C51.8142 311.579 50.8222 310.091 49.5492 308.818C48.2762 307.545 46.8047 306.52 45.1184 305.76C43.432 304.999 41.6795 304.619 39.8444 304.619H39.8609Z" fill="white"/>
<path d="M106.257 307.066C104.835 306.553 103.794 306.223 103.132 306.074C102.471 305.925 101.777 305.842 101.066 305.842C99.5447 305.842 98.1063 306.223 96.8002 306.983C95.4776 307.744 94.3368 308.769 93.3614 310.042C92.3859 311.315 91.6585 312.737 91.146 314.324C90.6335 315.911 90.3855 317.564 90.3855 319.284V347.224H76.7954V291.508H90.3855V297.774C92.1214 295.642 94.1219 293.906 96.42 292.583C98.718 291.26 101.281 290.599 104.124 290.599C105.745 290.599 108.142 291.112 111.3 292.12L106.257 307.082V307.066Z" fill="white"/>
<path d="M128.097 285.226C125.749 285.226 123.799 284.366 122.211 282.63C120.624 280.894 119.847 278.811 119.847 276.364C119.847 273.917 120.641 271.818 122.211 270.032C123.782 268.247 125.749 267.354 128.097 267.354C130.445 267.354 132.396 268.247 133.966 270.032C135.537 271.818 136.33 273.917 136.33 276.364C136.33 278.811 135.537 280.894 133.966 282.63C132.379 284.366 130.428 285.226 128.097 285.226ZM121.219 290.417H134.809V347.208H121.219V290.417Z" fill="white"/>
<path d="M172.058 373.478C164.519 373.478 157.294 370.321 150.383 364.005L159.394 352.862C161.427 355.21 163.444 356.797 165.428 357.673C167.412 358.533 169.429 358.979 171.463 358.979C174.406 358.979 176.836 358.648 178.721 357.987C180.606 357.326 182.127 356.35 183.3 355.094C184.474 353.821 185.334 352.25 185.896 350.365C186.458 348.481 186.838 346.315 187.037 343.885C185.003 345.406 182.771 346.563 180.325 347.323C177.878 348.084 175.497 348.464 173.149 348.464C169.38 348.464 165.792 347.72 162.386 346.249C158.981 344.777 156.021 342.744 153.525 340.148C151.028 337.552 149.044 334.527 147.573 331.072C146.101 327.616 145.357 323.946 145.357 320.077C145.357 316.208 146.101 312.538 147.573 309.083C149.044 305.627 151.028 302.602 153.525 299.99C156.021 297.394 158.964 295.327 162.386 293.806C165.792 292.285 169.38 291.525 173.149 291.525C175.596 291.525 177.977 291.955 180.325 292.814C182.672 293.674 184.855 294.881 186.888 296.402V291.525H201.09V345.108C201.09 349.39 200.329 353.275 198.792 356.78C197.271 360.285 195.204 363.261 192.608 365.708C190.013 368.155 186.938 370.056 183.367 371.428C179.795 372.801 176.043 373.495 172.075 373.495L172.058 373.478ZM173.133 305.991C171.298 305.991 169.545 306.371 167.859 307.132C166.172 307.892 164.734 308.917 163.511 310.19C162.287 311.463 161.312 312.935 160.617 314.621C159.906 316.308 159.543 318.11 159.543 320.044C159.543 323.913 160.865 327.203 163.511 329.898C166.156 332.593 169.363 333.948 173.133 333.948C176.902 333.948 180.126 332.609 182.821 329.898C185.516 327.186 186.872 323.913 186.872 320.044C186.872 318.11 186.508 316.308 185.797 314.621C185.086 312.935 184.094 311.463 182.821 310.19C181.548 308.917 180.077 307.892 178.39 307.132C176.704 306.371 174.951 305.991 173.116 305.991H173.133Z" fill="white"/>
<path d="M252.358 315.002C252.358 311.133 251.515 308.355 249.845 306.686C248.176 305.016 245.497 304.173 241.827 304.173C238.57 304.173 235.594 305.297 232.899 307.529C230.204 309.761 228.452 312.522 227.625 315.779V347.224H213.126V261.121H227.625V297.46C229.857 295.427 232.535 293.724 235.644 292.352C238.752 290.979 241.877 290.285 245.034 290.285C247.58 290.285 250.127 290.649 252.673 291.36C255.219 292.07 257.5 293.294 259.55 295.03C261.584 296.766 263.237 299.13 264.51 302.122C265.783 305.131 266.411 308.868 266.411 313.348V347.241H252.358V315.035V315.002Z" fill="white"/>
<path d="M301.362 347.208H287.623V305.379H277.852V290.566H287.623V274.38H301.362V290.566H311.133V305.379H301.362V347.208Z" fill="white"/>
<path d="M321.053 261.104H334.031V347.208H321.053V261.104Z" fill="white"/>
<path d="M353.275 285.226C350.928 285.226 348.977 284.366 347.39 282.63C345.802 280.894 345.025 278.811 345.025 276.364C345.025 273.917 345.819 271.818 347.39 270.032C348.96 268.247 350.928 267.354 353.275 267.354C355.623 267.354 357.574 268.247 359.144 270.032C360.715 271.818 361.509 273.917 361.509 276.364C361.509 278.811 360.715 280.894 359.144 282.63C357.557 284.366 355.606 285.226 353.275 285.226ZM346.398 290.417H359.988V347.208H346.398V290.417Z" fill="white"/>
<path d="M391.896 290.268H400.592V305.082H391.896V347.224H378.157V305.082H372.817V290.268H378.157V283.242C378.157 279.687 378.819 276.529 380.141 273.785C381.464 271.041 383.249 268.742 385.481 266.907C387.713 265.072 390.342 263.7 393.351 262.791C396.343 261.881 399.534 261.418 402.891 261.418V276.381C399.534 276.381 396.856 276.976 394.872 278.133C392.888 279.307 391.896 281.059 391.896 283.407V290.285V290.268Z" fill="white"/>
<path d="M414.48 369.659L433.262 335.155L409.901 291.492H426.086L441.346 320.044L456.457 291.492H472.643L430.815 369.659H414.48V369.659Z" fill="white"/>
<path d="M127.899 285.54C133.067 285.54 137.256 281.35 137.256 276.182C137.256 271.014 133.067 266.825 127.899 266.825C122.731 266.825 118.541 271.014 118.541 276.182C118.541 281.35 122.731 285.54 127.899 285.54Z" fill="#F0E725"/>
<path d="M353.011 285.54C358.179 285.54 362.368 281.35 362.368 276.182C362.368 271.014 358.179 266.825 353.011 266.825C347.843 266.825 343.653 271.014 343.653 276.182C343.653 281.35 347.843 285.54 353.011 285.54Z" fill="#F0E725"/>
<path d="M240.289 7.1753C242.207 6.96037 243.612 5.24095 243.397 3.32313V3.10821C243.199 1.50451 241.943 0.198413 240.273 0.0165512C238.355 -0.181844 236.652 1.20692 236.454 3.10821V3.32313C236.404 3.55459 236.404 3.81912 236.437 4.06711C236.636 5.98493 238.371 7.39023 240.289 7.1753V7.1753ZM240.455 30.4536C243.513 30.1726 245.778 27.4612 245.497 24.3861V24.1711C245.233 21.5589 243.166 19.3931 240.455 19.1451C237.396 18.8641 234.701 21.1291 234.42 24.1711V24.3861C234.37 24.7167 234.37 25.0639 234.404 25.4111C234.685 28.4697 237.396 30.7347 240.471 30.4536H240.455ZM240.554 53.4344C244.621 53.1037 247.663 49.5492 247.349 45.4655V45.2506C247.051 41.696 244.224 38.7697 240.537 38.4721C236.47 38.158 232.916 41.2 232.601 45.2671V45.4821C232.552 45.8458 232.552 46.2591 232.601 46.6394C232.932 50.7065 236.487 53.7485 240.57 53.4344H240.554ZM240.67 76.101C245.563 75.7208 249.234 71.4553 248.87 66.545V66.3301C248.523 62.015 245.1 58.4769 240.653 58.1463C235.759 57.7825 231.494 61.4529 231.13 66.3466V66.5615C231.08 66.9914 231.08 67.4708 231.13 67.9007C231.51 72.7944 235.776 76.4647 240.686 76.101H240.67ZM241.066 99.6604C247.134 99.0818 251.565 93.692 250.986 87.6245V87.4095C250.474 82.2513 246.39 78.0188 241.033 77.5063C234.982 76.9277 229.609 81.375 229.047 87.4261V87.641C228.964 88.3023 228.964 89.0463 229.03 89.7407C229.609 95.8082 234.999 100.239 241.066 99.6604ZM239 100.834C232.883 101.396 228.369 106.836 228.948 112.953V113.168C229.444 118.409 233.61 122.724 239.033 123.203C245.15 123.765 250.556 119.252 251.118 113.135V112.92C251.184 112.275 251.201 111.548 251.135 110.87C250.573 104.753 245.133 100.239 239.016 100.818L239 100.834ZM238.355 124.493C234.023 125.435 231.262 129.701 232.188 134.032L232.238 134.247C232.883 137.223 235.214 139.703 238.388 140.381C242.703 141.307 246.952 138.546 247.861 134.231L247.911 134.016C248.126 132.958 248.159 131.784 247.911 130.643C246.969 126.311 242.703 123.55 238.371 124.476L238.355 124.493ZM198.577 29.5443C199.023 31.0654 200.627 31.9416 202.164 31.4787C203.685 31.0323 204.562 29.4286 204.099 27.891L204.049 27.7257C203.669 26.4692 202.462 25.593 201.09 25.6922C199.519 25.8079 198.345 27.1967 198.461 28.7673V28.9326C198.494 29.131 198.527 29.3294 198.593 29.5278L198.577 29.5443ZM199.949 46.1103V46.2756C199.999 46.5402 200.048 46.8378 200.114 47.1023C200.809 49.5326 203.338 50.9545 205.769 50.2601C208.199 49.5657 209.621 47.0362 208.926 44.6058L208.877 44.4405C208.298 42.3573 206.298 40.9355 204.066 41.1339C201.553 41.3654 199.718 43.5808 199.949 46.0938V46.1103ZM207.025 56.741C203.702 57.0882 201.288 60.0806 201.635 63.4037V63.5691C201.685 63.8667 201.751 64.2139 201.834 64.5114C202.71 67.7519 206.033 69.6697 209.274 68.81C212.514 67.9503 214.432 64.6106 213.572 61.3702L213.522 61.2049C212.762 58.3777 210.034 56.4268 207.025 56.741V56.741ZM210.051 72.6126C206.05 73.0424 203.156 76.6466 203.586 80.6476V80.8129C203.652 81.1601 203.718 81.5403 203.801 81.8875C204.843 85.7893 208.844 88.1204 212.745 87.0789C216.647 86.0373 218.978 82.0363 217.937 78.1346L217.887 77.9692C216.978 74.5304 213.688 72.1827 210.051 72.5795V72.6126ZM205.058 97.9906V98.1559C205.124 98.7015 205.223 99.2967 205.388 99.8423C206.761 104.653 211.787 107.431 216.598 106.059C221.409 104.686 224.186 99.6604 222.814 94.8493L222.764 94.684C221.591 90.6004 217.656 87.7733 213.275 88.17C208.298 88.6164 204.628 92.9976 205.074 97.9741L205.058 97.9906ZM218.449 125.386C223.475 124.923 227.162 120.475 226.699 115.449V115.284C226.633 114.755 226.534 114.16 226.385 113.631C225.013 108.77 219.954 105.943 215.093 107.315C210.232 108.687 207.405 113.746 208.778 118.607L208.827 118.772C210.001 122.922 214.002 125.799 218.449 125.386ZM218.102 126.51C214.746 127.915 213.142 131.767 214.548 135.14L214.614 135.305C215.573 137.62 217.821 139.273 220.483 139.339C224.104 139.439 227.113 136.578 227.212 132.958V132.776C227.245 131.883 227.079 130.941 226.716 130.064C225.31 126.708 221.458 125.105 218.086 126.51H218.102ZM154.45 19.0459C154.517 19.2774 154.599 19.5254 154.698 19.7403C155.558 21.4763 157.658 22.1872 159.394 21.344C161.13 20.4843 161.841 18.3846 160.997 16.6487L160.898 16.4668C160.187 15.0284 158.551 14.2183 156.93 14.6151C155.062 15.078 153.921 16.9628 154.401 18.831L154.45 19.0294V19.0459ZM159.691 39.3483L159.741 39.5467C159.824 39.8609 159.939 40.1915 160.088 40.5057C161.411 43.2832 164.734 44.4736 167.511 43.1675C170.289 41.8448 171.479 38.5382 170.173 35.7442L170.091 35.5623C168.966 33.1816 166.271 31.8755 163.643 32.5699C160.683 33.3469 158.914 36.389 159.691 39.3649V39.3483ZM165.197 59.783L165.246 59.9814C165.346 60.3286 165.494 60.7254 165.643 61.0726C167.346 64.7925 171.727 66.4293 175.447 64.7264C179.167 63.0235 180.804 58.6423 179.101 54.9224L179.018 54.724C177.53 51.467 173.877 49.698 170.322 50.6734C166.387 51.7646 164.089 55.8317 165.197 59.7665V59.783ZM171.016 80.102L171.066 80.3004C171.182 80.7137 171.347 81.1601 171.529 81.5569C173.562 86.0373 178.836 88.0212 183.3 85.9877C187.781 83.9541 189.765 78.6801 187.731 74.2163L187.648 74.0179C185.863 70.083 181.432 67.9338 177.15 69.1407C172.422 70.4798 169.677 75.3736 171.016 80.102V80.102ZM184.144 87.1946C178.258 88.7322 174.736 94.7336 176.274 100.619L176.323 100.818C176.489 101.463 176.737 102.157 177.051 102.785C179.68 108.291 186.26 110.605 191.749 107.993C197.254 105.364 199.569 98.7842 196.957 93.2952L196.874 93.1134C194.642 88.4346 189.351 85.8554 184.16 87.1946H184.144ZM184.987 124.824C187.235 129.585 192.608 132.214 197.882 130.825C203.818 129.254 207.356 123.17 205.785 117.235L205.736 117.037C205.57 116.408 205.322 115.73 205.041 115.119C202.412 109.564 195.766 107.183 190.211 109.812C184.656 112.44 182.275 119.087 184.904 124.642L184.987 124.824ZM209.918 137.934C209.77 136.859 209.373 135.752 208.761 134.776C206.397 131.023 201.437 129.883 197.684 132.247C193.931 134.611 192.79 139.571 195.154 143.324L195.27 143.506C196.89 146.085 199.932 147.622 203.14 147.159C207.505 146.548 210.547 142.514 209.951 138.149L209.918 137.934ZM127.518 56.1127C127.601 56.2946 127.7 56.4764 127.832 56.6418C128.775 57.9148 130.577 58.1793 131.866 57.237C133.139 56.2946 133.404 54.4925 132.462 53.2029L132.362 53.0707C131.569 52.0126 130.13 51.5992 128.891 52.1779C127.452 52.8392 126.824 54.5256 127.469 55.9639L127.535 56.1127H127.518ZM134.859 71.8851C134.975 72.1331 135.123 72.3811 135.289 72.6126C136.76 74.6626 139.62 75.1256 141.67 73.6541C143.721 72.1827 144.183 69.3225 142.712 67.2724L142.613 67.1402C141.356 65.3877 138.976 64.7264 136.959 65.6853C134.677 66.7599 133.702 69.4879 134.776 71.7529L134.842 71.9017L134.859 71.8851ZM142.282 87.4095L142.365 87.5583C142.497 87.8228 142.679 88.1204 142.844 88.385C144.779 91.1294 148.565 91.8073 151.309 89.8729C154.054 87.9386 154.731 84.1525 152.797 81.4081L152.698 81.2593C151.012 78.862 147.788 77.9692 145.076 79.2919C142.067 80.7633 140.811 84.384 142.282 87.4095V87.4095ZM162.552 95.5603C160.535 92.6505 156.616 91.5758 153.343 93.1795C149.722 94.9651 148.234 99.3298 150.02 102.95L150.102 103.099C150.251 103.413 150.449 103.761 150.664 104.042C152.979 107.348 157.526 108.175 160.832 105.86C164.139 103.546 164.965 98.9991 162.651 95.6925L162.552 95.5437V95.5603ZM157.327 118.739L157.393 118.888C157.625 119.384 157.939 119.913 158.27 120.376C161.212 124.427 166.867 125.319 170.917 122.377C174.968 119.434 175.861 113.78 172.918 109.729L172.818 109.597C170.322 106.158 165.66 104.852 161.675 106.72C157.145 108.836 155.194 114.226 157.327 118.739V118.739ZM167.974 136.975C170.504 140.48 175.232 141.803 179.283 139.885C183.846 137.736 185.797 132.296 183.648 127.733L183.581 127.584C183.35 127.105 183.052 126.593 182.722 126.146C179.762 122.046 174.058 121.12 169.958 124.08C165.858 127.039 164.932 132.743 167.892 136.843L167.991 136.975H167.974ZM190.062 143.836C189.781 142.993 189.302 142.15 188.657 141.456C186.194 138.777 182.011 138.595 179.332 141.075C176.654 143.539 176.472 147.722 178.952 150.4L179.068 150.532C180.771 152.367 183.449 153.161 185.962 152.318C189.401 151.177 191.253 147.457 190.112 144.018L190.062 143.853V143.836ZM82.7968 61.8496C82.929 62.048 83.0944 62.2464 83.2762 62.4118C84.665 63.7509 86.8969 63.7013 88.2361 62.3126C89.5753 60.9238 89.5257 58.6919 88.1369 57.3527L87.9881 57.2039C86.8308 56.0962 85.0122 55.8978 83.6234 56.8236C82.0362 57.8983 81.6064 60.0641 82.681 61.6513L82.7968 61.8331V61.8496ZM94.7831 79.3084C94.965 79.5729 95.1964 79.854 95.4444 80.0854C97.6268 82.2513 101.165 82.2347 103.331 80.0524C105.496 77.87 105.48 74.332 103.298 72.1662L103.149 72.0174C101.281 70.1657 98.3046 69.8516 96.0727 71.4057C93.5597 73.1582 92.9314 76.6135 94.6839 79.1431L94.7997 79.3084H94.7831ZM106.951 96.6184C107.166 96.9159 107.431 97.2301 107.695 97.5111C110.556 100.421 115.251 100.454 118.161 97.5938C121.07 94.7336 121.104 90.0383 118.243 87.1285L118.095 86.9797C115.598 84.4336 111.531 84.0037 108.539 86.153C105.215 88.5172 104.455 93.1299 106.819 96.453L106.935 96.6184H106.951ZM119.252 113.548L119.368 113.713C119.616 114.061 119.93 114.424 120.227 114.738C123.666 118.243 129.304 118.31 132.809 114.871C136.314 111.432 136.38 105.794 132.941 102.289L132.792 102.14C129.767 99.0487 124.873 98.5362 121.252 101.148C117.268 104.009 116.359 109.564 119.235 113.548H119.252ZM147.986 116.921C144.299 113.284 138.43 112.672 134.016 115.714C129.006 119.169 127.75 126.03 131.205 131.023L131.321 131.189C131.701 131.734 132.181 132.313 132.677 132.792C137.025 137.058 144.002 136.992 148.267 132.66C152.533 128.328 152.466 121.335 148.135 117.07L147.986 116.921V116.921ZM161.841 152.004C166.883 148.499 168.123 141.571 164.618 136.529L164.502 136.363C164.122 135.834 163.659 135.272 163.196 134.793C158.815 130.461 151.772 130.511 147.44 134.876C143.109 139.257 143.158 146.3 147.523 150.631L147.672 150.78C151.408 154.484 157.36 155.112 161.841 152.004ZM175.596 154.566C175.083 153.607 174.339 152.698 173.43 151.987C169.925 149.259 164.883 149.904 162.155 153.409C159.427 156.914 160.072 161.956 163.577 164.684L163.742 164.817C166.156 166.685 169.528 167.082 172.389 165.561C176.29 163.494 177.762 158.65 175.695 154.765L175.596 154.583V154.566ZM70.1821 105.86C70.3144 105.993 70.4797 106.141 70.6451 106.241C71.9677 107.117 73.7533 106.753 74.6295 105.414C75.5057 104.091 75.142 102.306 73.8029 101.429L73.6541 101.33C72.5464 100.603 71.0584 100.719 70.083 101.677C68.9587 102.785 68.9422 104.587 70.0499 105.728L70.1656 105.844L70.1821 105.86ZM82.4661 118.177C82.6645 118.359 82.8794 118.558 83.1109 118.706C85.194 120.128 88.0542 119.583 89.4761 117.499C90.8979 115.416 90.3523 112.556 88.2692 111.134L88.1204 111.035C86.3348 109.812 83.8879 110.01 82.3173 111.597C80.5483 113.383 80.5648 116.276 82.3504 118.045L82.4661 118.161V118.177ZM94.8823 130.345C95.0972 130.56 95.3618 130.775 95.6263 130.957C98.3708 132.875 102.173 132.214 104.091 129.453C106.009 126.708 105.348 122.906 102.587 120.988L102.438 120.889C100.041 119.202 96.7009 119.467 94.6013 121.649C92.2701 124.063 92.3528 127.899 94.7501 130.23L94.8658 130.345H94.8823ZM116.722 131.04L116.59 130.941C113.697 128.891 109.646 129.221 107.117 131.85C104.323 134.76 104.422 139.372 107.332 142.167L107.464 142.282C107.712 142.514 108.026 142.778 108.307 142.977C111.614 145.308 116.16 144.514 118.491 141.208C120.822 137.901 120.029 133.354 116.722 131.023V131.04ZM119.582 141.72C116.061 145.258 116.061 150.979 119.599 154.5L119.715 154.616C120.112 154.996 120.574 155.393 121.037 155.707C125.187 158.501 130.808 157.41 133.619 153.26C136.413 149.11 135.322 143.489 131.172 140.679L131.023 140.579C127.502 138.199 122.674 138.562 119.566 141.687L119.582 141.72ZM147.474 166.883C151.028 163.296 150.995 157.526 147.407 153.971L147.292 153.855C146.911 153.475 146.448 153.095 146.002 152.797C141.819 149.954 136.132 151.045 133.288 155.211C130.445 159.394 131.536 165.081 135.702 167.925L135.851 168.024C139.422 170.454 144.316 170.074 147.474 166.9V166.883ZM158.964 166.9C158.402 166.205 157.674 165.577 156.831 165.147C153.591 163.477 149.606 164.734 147.936 167.974C146.267 171.215 147.523 175.199 150.764 176.869L150.912 176.952C153.128 178.093 155.922 177.927 158.005 176.257C160.849 174.009 161.312 169.876 159.063 167.049L158.947 166.916L158.964 166.9ZM35.3638 125.171C36.1409 123.402 35.3473 121.335 33.5783 120.541L33.3799 120.459C31.9085 119.814 30.1394 120.244 29.1475 121.6C28.0232 123.154 28.3539 125.336 29.9245 126.46L30.0898 126.576C30.2882 126.708 30.5032 126.841 30.7346 126.94C32.5036 127.717 34.5703 126.923 35.3638 125.154V125.171ZM47.1683 138.777L47.3337 138.893C47.5982 139.075 47.9123 139.257 48.2099 139.406C51.004 140.695 54.3106 139.472 55.6001 136.678C56.8897 133.884 55.6663 130.577 52.8722 129.287L52.6738 129.205C50.2931 128.097 47.3833 128.824 45.8126 131.056C44.0436 133.569 44.6388 137.025 47.1518 138.794L47.1683 138.777ZM64.5279 150.879L64.6932 150.995C64.9908 151.193 65.3545 151.408 65.7017 151.574C69.3886 153.326 73.8029 151.756 75.5553 148.069C77.3078 144.382 75.7372 139.968 72.0504 138.215L71.8685 138.133C68.6446 136.595 64.6932 137.587 62.6101 140.629C60.2955 143.985 61.1552 148.581 64.5279 150.896V150.879ZM82.0528 162.7L82.2181 162.816C82.5653 163.048 82.9786 163.296 83.3754 163.477C87.8062 165.61 93.1298 163.725 95.246 159.295C97.3788 154.864 95.494 149.54 91.0632 147.424L90.8814 147.341C86.9961 145.473 82.2016 146.663 79.7051 150.35C76.9441 154.401 77.9857 159.923 82.0528 162.7V162.7ZM96.6679 159.691C93.1464 164.651 94.3037 171.529 99.2635 175.034L99.4289 175.15C99.9745 175.53 100.619 175.91 101.247 176.191C106.786 178.721 113.333 176.274 115.863 170.719C118.392 165.18 115.945 158.633 110.39 156.104L110.192 156.021C105.48 153.872 99.7595 155.294 96.6513 159.658L96.6679 159.691ZM135.223 184.292C138.761 179.283 137.57 172.339 132.544 168.801L132.379 168.685C131.85 168.322 131.222 167.941 130.61 167.66C125.022 165.098 118.409 167.545 115.846 173.133C113.283 178.721 115.73 185.334 121.318 187.897L121.517 187.979C126.295 190.178 132.098 188.74 135.239 184.292H135.223ZM149.028 181.994C148.217 181.267 147.209 180.672 146.118 180.308C141.902 178.952 137.372 181.267 136.016 185.499C134.661 189.715 136.975 194.245 141.208 195.601L141.406 195.667C144.299 196.593 147.622 195.816 149.788 193.419C152.748 190.145 152.483 185.086 149.209 182.143L149.044 181.994H149.028ZM37.3478 170.339C37.7115 168.785 36.7691 167.247 35.215 166.867L35.0497 166.834C33.7601 166.52 32.4044 167.148 31.8093 168.388C31.1314 169.81 31.7266 171.512 33.1484 172.207L33.2972 172.273C33.4791 172.356 33.6775 172.422 33.8759 172.471C35.43 172.835 36.9675 171.893 37.3478 170.339V170.339ZM51.9298 171C49.8467 170.471 47.5982 171.479 46.6723 173.513C45.6142 175.794 46.6227 178.506 48.9043 179.564L49.0531 179.63C49.3011 179.746 49.5656 179.845 49.8467 179.911C52.2935 180.539 54.79 179.051 55.4017 176.605C56.03 174.158 54.542 171.661 52.0951 171.05L51.9298 171ZM64.7263 186.756L64.8751 186.822C65.1561 186.938 65.4703 187.053 65.7679 187.136C69.0083 187.996 72.348 186.078 73.2077 182.837C74.0674 179.597 72.1496 176.257 68.9091 175.398L68.7438 175.348C65.9167 174.588 62.8581 175.976 61.6346 178.737C60.2789 181.796 61.6512 185.384 64.7098 186.739L64.7263 186.756ZM80.6309 193.683L80.7963 193.749C81.1104 193.881 81.4907 194.03 81.8379 194.113C85.7396 195.171 89.7406 192.873 90.7987 188.971C91.8568 185.069 89.5587 181.068 85.657 180.01L85.4916 179.961C82.0693 179.035 78.3825 180.721 76.911 184.061C75.2908 187.748 76.9606 192.046 80.6475 193.683H80.6309ZM109.134 195.138C110.341 190.277 107.398 185.367 102.537 184.16L102.372 184.111C98.255 183.085 93.8407 185.069 91.9891 189.07C89.8894 193.6 91.8568 198.974 96.3868 201.073L96.5356 201.139C97.0316 201.371 97.6102 201.569 98.1558 201.718C103.017 202.925 107.927 199.982 109.134 195.121V195.138ZM126.791 203.19C128.907 198.61 126.89 193.187 122.31 191.071L122.162 191.005C121.682 190.79 121.12 190.575 120.574 190.443C115.681 189.203 110.704 192.162 109.464 197.072C108.224 201.966 111.184 206.942 116.094 208.182L116.259 208.232C120.442 209.29 124.923 207.257 126.791 203.206V203.19ZM137.752 199.37L137.603 199.271C136.843 198.808 135.934 198.478 134.991 198.345C131.37 197.882 128.064 200.429 127.601 204.049C127.138 207.67 129.684 210.977 133.305 211.439H133.47C135.95 211.787 138.513 210.662 139.901 208.397C141.803 205.306 140.827 201.272 137.752 199.37ZM3.91824 198.593H3.70331C2.09962 198.478 0.578588 199.486 0.115667 201.09C-0.413387 202.942 0.661253 204.859 2.49641 205.405L2.6948 205.471C2.92626 205.537 3.17426 205.587 3.42225 205.603C5.3566 205.736 7.02642 204.281 7.15869 202.346C7.29095 200.412 5.83605 198.742 3.9017 198.61L3.91824 198.593ZM25.0308 200.197H24.8158C22.2036 199.966 19.7072 201.635 18.9963 204.264C18.1861 207.224 19.9386 210.282 22.898 211.076L23.0964 211.125C23.4105 211.208 23.7577 211.274 24.1049 211.307C27.18 211.555 29.8584 209.274 30.1229 206.215C30.3709 203.14 28.0894 200.462 25.0308 200.197V200.197ZM46.1102 202.032H45.8953C42.3407 201.668 38.968 203.95 38.0422 207.521C37.0337 211.472 39.3979 215.49 43.3492 216.515L43.5476 216.565C43.9114 216.647 44.3081 216.73 44.6884 216.763C48.7555 217.143 52.3762 214.167 52.7565 210.1C53.1367 206.033 50.1608 202.412 46.0937 202.032H46.1102ZM75.109 213.919C75.5884 209.026 72.0173 204.677 67.1236 204.198H66.9086C62.6101 203.752 58.5264 206.513 57.4353 210.828C56.2284 215.589 59.1051 220.417 63.85 221.624L64.0484 221.673C64.4618 221.773 64.9412 221.855 65.3711 221.905C70.2648 222.384 74.613 218.813 75.0924 213.919H75.109ZM88.2526 205.752H88.0377C82.8794 205.322 77.9857 208.612 76.5639 213.787C74.9436 219.656 78.399 225.707 84.2517 227.328L84.4501 227.377C85.0948 227.542 85.8223 227.691 86.5167 227.741C92.5842 228.22 97.8913 223.674 98.3708 217.606C98.8502 211.539 94.3037 206.232 88.2361 205.752H88.2526ZM109.365 231.858H109.58C114.821 232.304 119.781 228.964 121.219 223.707C122.823 217.788 119.334 211.671 113.399 210.067L113.201 210.018C112.573 209.852 111.862 209.72 111.184 209.67C105.05 209.174 99.6769 213.738 99.1809 219.855C98.6849 225.988 103.248 231.362 109.365 231.858ZM133.602 216.912L133.404 216.829C132.396 216.432 131.238 216.201 130.081 216.251C125.65 216.416 122.195 220.152 122.36 224.583C122.525 229.014 126.262 232.469 130.693 232.304H130.908C133.95 232.172 136.793 230.32 138.017 227.311C139.67 223.227 137.703 218.565 133.602 216.912V216.912ZM21.2943 241.546H21.129C19.8229 241.711 18.7483 242.769 18.616 244.125C18.4672 245.696 19.608 247.101 21.1786 247.25H21.3439C21.5423 247.283 21.7572 247.283 21.9556 247.25C23.5428 247.068 24.667 245.646 24.4852 244.059C24.3033 242.488 22.8815 241.347 21.2943 241.529V241.546ZM38.5878 239.694H38.4224C36.2731 239.926 34.5207 241.645 34.3388 243.877C34.1404 246.39 35.9921 248.589 38.5051 248.804H38.6704C38.9349 248.837 39.2325 248.837 39.4971 248.804C42.0101 248.556 43.8452 246.307 43.5972 243.794C43.3492 241.281 41.1008 239.446 38.5878 239.694ZM55.8812 238.041H55.7159C52.7895 238.305 50.4088 240.653 50.1939 243.679C49.9624 247.018 52.4754 249.912 55.815 250.143H55.9804C56.278 250.176 56.6252 250.176 56.9393 250.143C60.2789 249.845 62.7589 246.903 62.4613 243.563C62.1637 240.223 59.2208 237.743 55.8812 238.041V238.041ZM73.1746 236.652H73.0093C69.4712 236.966 66.5945 239.81 66.3465 243.447C66.082 247.465 69.124 250.937 73.1415 251.201H73.3069C73.6541 251.234 74.0508 251.234 74.4146 251.201C78.4321 250.854 81.4245 247.316 81.0773 243.298C80.7301 239.281 77.1921 236.288 73.1746 236.636V236.652ZM90.468 234.767H90.3027C86.0703 235.23 82.6149 238.603 82.2346 243.001C81.8048 247.977 85.4916 252.358 90.468 252.788H90.6334C91.1789 252.854 91.7907 252.854 92.3528 252.788C97.3292 252.259 100.933 247.812 100.421 242.835C99.8918 237.859 95.4444 234.255 90.468 234.767V234.767ZM111.415 234.503H111.25C110.721 234.453 110.126 234.453 109.58 234.503C104.554 235.015 100.9 239.496 101.396 244.522C101.909 249.548 106.389 253.202 111.415 252.706H111.581C115.879 252.259 119.384 248.82 119.764 244.356C120.178 239.33 116.441 234.916 111.415 234.503V234.503ZM128.742 237.016L128.576 236.983C127.7 236.801 126.741 236.801 125.815 237.016C122.261 237.809 120.029 241.347 120.822 244.902C121.616 248.457 125.154 250.689 128.709 249.895L128.874 249.862C131.321 249.316 133.338 247.382 133.867 244.77C134.594 241.215 132.296 237.76 128.758 237.032L128.742 237.016ZM458.805 240.041H458.639C458.441 240.008 458.226 240.008 458.028 240.041C456.441 240.223 455.316 241.645 455.498 243.232C455.68 244.803 457.102 245.944 458.689 245.762H458.854C460.16 245.596 461.235 244.538 461.367 243.183C461.516 241.612 460.375 240.207 458.805 240.058V240.041ZM441.478 238.504H441.313C441.048 238.471 440.751 238.471 440.486 238.504C437.973 238.752 436.138 241 436.386 243.513C436.634 246.026 438.883 247.861 441.396 247.613H441.561C443.71 247.382 445.463 245.663 445.645 243.431C445.843 240.918 443.991 238.719 441.478 238.504ZM424.152 237.165H423.986C423.689 237.132 423.342 237.132 423.028 237.165C419.688 237.462 417.208 240.405 417.506 243.745C417.803 247.084 420.746 249.564 424.086 249.267H424.251C427.177 249.002 429.558 246.655 429.773 243.629C430.004 240.289 427.491 237.396 424.152 237.165ZM406.825 236.09H406.66C406.313 236.057 405.916 236.057 405.552 236.09C401.535 236.437 398.542 239.975 398.89 243.993C399.237 248.01 402.775 251.003 406.792 250.656H406.958C410.496 250.341 413.372 247.498 413.62 243.86C413.885 239.843 410.843 236.371 406.825 236.107V236.09ZM389.499 234.519H389.333C388.788 234.453 388.176 234.453 387.614 234.519C382.638 235.048 379.033 239.496 379.546 244.472C380.059 249.449 384.522 253.053 389.499 252.54H389.664C393.897 252.077 397.352 248.705 397.732 244.307C398.162 239.33 394.475 234.949 389.499 234.519V234.519ZM368.552 234.602H368.386C364.088 235.048 360.583 238.487 360.202 242.951C359.789 247.977 363.526 252.391 368.552 252.805H368.717C369.246 252.854 369.841 252.854 370.387 252.805C375.413 252.292 379.067 247.812 378.571 242.786C378.058 237.76 373.578 234.106 368.552 234.602V234.602ZM351.258 237.413L351.093 237.446C348.646 237.991 346.629 239.926 346.1 242.538C345.372 246.092 347.654 249.548 351.209 250.275L351.374 250.308C352.25 250.49 353.209 250.49 354.135 250.275C357.689 249.482 359.921 245.944 359.128 242.389C358.334 238.834 354.796 236.603 351.242 237.396L351.258 237.413ZM476.214 198.362H475.999C475.768 198.395 475.503 198.445 475.272 198.511C473.42 199.056 472.345 200.991 472.874 202.859C473.42 204.711 475.354 205.785 477.206 205.256L477.404 205.19C478.942 204.744 480.033 203.272 479.917 201.602C479.785 199.685 478.115 198.23 476.197 198.378L476.214 198.362ZM456.821 210.96L457.019 210.91C459.549 210.216 461.318 207.802 461.086 205.091C460.822 202.032 458.143 199.767 455.085 200.015H454.87C454.556 200.065 454.192 200.114 453.861 200.214C450.886 201.024 449.15 204.099 449.96 207.058C450.77 210.034 453.845 211.77 456.804 210.96H456.821ZM436.585 216.383C440.04 215.49 442.437 212.183 442.074 208.513C441.677 204.463 438.073 201.487 434.005 201.883H433.79C433.427 201.95 433.013 202.016 432.65 202.098C428.698 203.123 426.318 207.157 427.343 211.125C428.368 215.077 432.402 217.457 436.37 216.432L436.568 216.383H436.585ZM422.73 212.051C422.234 207.174 417.886 203.603 413.009 204.099H412.794C412.364 204.165 411.901 204.248 411.471 204.347C406.71 205.57 403.833 210.414 405.056 215.176C406.28 219.937 411.124 222.814 415.885 221.591L416.084 221.541C420.267 220.466 423.16 216.482 422.713 212.051H422.73ZM395.5 227.344L395.699 227.294C400.692 225.922 404.164 221.144 403.734 215.804C403.238 209.737 397.931 205.223 391.88 205.719H391.665C391.003 205.802 390.276 205.917 389.598 206.099C383.729 207.736 380.29 213.804 381.927 219.673C383.563 225.542 389.631 228.981 395.5 227.344V227.344ZM370.387 231.891H370.602C371.246 231.808 371.957 231.692 372.619 231.51C378.554 229.89 382.042 223.756 380.422 217.821C378.802 211.886 372.668 208.397 366.733 210.018L366.535 210.067C361.459 211.456 357.937 216.3 358.4 221.723C358.913 227.84 364.286 232.387 370.403 231.874L370.387 231.891ZM349.274 232.37C350.365 232.403 351.523 232.221 352.581 231.775C356.698 230.105 358.665 225.41 356.995 221.31C355.325 217.193 350.63 215.225 346.53 216.895L346.331 216.978C343.521 218.135 341.471 220.847 341.355 224.087C341.206 228.501 344.645 232.188 349.059 232.354H349.274V232.37ZM444.339 165.395L444.173 165.445C443.991 165.494 443.776 165.561 443.611 165.66C442.189 166.371 441.611 168.107 442.321 169.528C443.032 170.95 444.768 171.529 446.19 170.818L446.339 170.735C447.513 170.14 448.174 168.801 447.827 167.462C447.43 165.941 445.876 165.015 444.339 165.412V165.395ZM427.525 169.876L427.359 169.925C427.095 169.991 426.83 170.091 426.582 170.223C424.301 171.314 423.358 174.059 424.449 176.34C425.541 178.622 428.285 179.564 430.567 178.473L430.715 178.39C432.666 177.448 433.724 175.232 433.129 173.083C432.468 170.653 429.955 169.214 427.525 169.892V169.876ZM410.793 174.538L410.628 174.588C410.33 174.67 410.016 174.786 409.735 174.918C406.693 176.34 405.387 179.961 406.809 183.003C408.231 186.045 411.851 187.351 414.893 185.929L415.042 185.863C417.704 184.623 419.142 181.598 418.299 178.688C417.373 175.464 414.017 173.612 410.793 174.538V174.538ZM394.145 179.465L393.979 179.514C393.649 179.614 393.268 179.746 392.954 179.895C389.284 181.598 387.697 185.929 389.4 189.599C391.103 193.27 395.434 194.857 399.104 193.154L399.253 193.088C402.477 191.6 404.213 187.946 403.188 184.425C402.064 180.556 398.013 178.324 394.145 179.448V179.465ZM383.646 200.776C387.465 198.924 389.565 194.559 388.408 190.294C387.102 185.466 382.142 182.623 377.331 183.912L377.165 183.962C376.636 184.111 376.058 184.309 375.545 184.573C371.048 186.772 369.18 192.195 371.379 196.692C373.578 201.189 378.984 203.057 383.497 200.858L383.646 200.776V200.776ZM363.889 208.265L364.055 208.216C364.567 208.067 365.129 207.868 365.625 207.62C370.172 205.421 372.073 199.949 369.874 195.403C367.675 190.856 362.203 188.955 357.656 191.154L357.508 191.236C353.622 193.104 351.49 197.552 352.68 201.867C354.003 206.728 359.029 209.604 363.889 208.265V208.265ZM346.745 211.836L346.91 211.803C347.786 211.671 348.696 211.34 349.506 210.828C352.581 208.86 353.474 204.777 351.506 201.718C349.539 198.643 345.455 197.75 342.397 199.718L342.248 199.817C340.148 201.172 338.908 203.669 339.288 206.298C339.817 209.885 343.157 212.349 346.745 211.82V211.836ZM451.067 122.063C450.29 120.31 448.224 119.516 446.471 120.293L446.273 120.376C446.058 120.475 445.826 120.608 445.628 120.74C444.057 121.881 443.727 124.08 444.868 125.634C446.008 127.204 448.207 127.535 449.761 126.394L449.927 126.278C451.216 125.336 451.729 123.584 451.051 122.046L451.067 122.063ZM432.567 138.761L432.732 138.645C434.882 137.124 435.708 134.247 434.568 131.784C433.278 129.006 429.971 127.783 427.194 129.072L427.012 129.155C426.714 129.287 426.4 129.469 426.136 129.668C423.623 131.453 423.028 134.925 424.813 137.438C426.599 139.951 430.071 140.546 432.584 138.761H432.567ZM415.241 150.896L415.406 150.78C418.349 148.763 419.473 144.845 417.886 141.522C416.133 137.851 411.719 136.281 408.032 138.05L407.85 138.133C407.52 138.298 407.156 138.496 406.842 138.711C403.469 141.026 402.626 145.638 404.941 149.011C407.255 152.384 411.868 153.227 415.241 150.912V150.896ZM385.382 160.435C388.16 164.486 393.698 165.528 397.749 162.75L397.914 162.634C401.485 160.204 402.841 155.459 400.907 151.441C398.774 147.027 393.467 145.176 389.052 147.292L388.871 147.391C388.49 147.573 388.077 147.821 387.713 148.069C383.663 150.846 382.621 156.385 385.399 160.435H385.382ZM369.56 156.137C368.948 156.418 368.304 156.782 367.741 157.178C362.782 160.716 361.624 167.611 365.162 172.571C368.7 177.53 375.595 178.688 380.554 175.15L380.72 175.034C384.936 172.025 386.572 166.371 384.341 161.494C381.811 155.972 375.281 153.541 369.742 156.071L369.544 156.153L369.56 156.137ZM358.516 187.996L358.715 187.913C359.31 187.632 359.938 187.285 360.484 186.888C365.51 183.333 366.683 176.373 363.129 171.364C359.574 166.338 352.614 165.164 347.604 168.718L347.439 168.834C343.141 171.876 341.487 177.63 343.769 182.573C346.348 188.145 352.945 190.575 358.533 187.996H358.516ZM342.314 182.639C339.338 179.349 334.262 179.101 330.972 182.077L330.807 182.226C328.558 184.276 327.567 187.533 328.575 190.608C329.931 194.807 334.444 197.105 338.644 195.75L338.842 195.684C339.884 195.336 340.892 194.774 341.752 193.997C345.042 191.021 345.29 185.946 342.314 182.656V182.639ZM408.826 104.67L408.942 104.538C409.851 103.579 410 102.091 409.223 100.95C408.33 99.6439 406.544 99.3132 405.255 100.206L405.106 100.305C404.941 100.421 404.775 100.553 404.643 100.702C403.552 101.859 403.601 103.678 404.759 104.769C405.916 105.86 407.735 105.811 408.826 104.653V104.67ZM396.773 117.202L396.889 117.086C398.394 115.549 398.642 113.085 397.335 111.267C395.881 109.216 393.037 108.72 390.97 110.175L390.838 110.275C390.623 110.423 390.392 110.622 390.21 110.82C388.441 112.639 388.49 115.532 390.292 117.301C392.111 119.07 395.004 119.02 396.773 117.218V117.202ZM376.851 120.277L376.719 120.376C376.471 120.558 376.206 120.773 375.991 121.004C373.627 123.385 373.627 127.221 375.991 129.602C378.372 131.966 382.208 131.966 384.589 129.602L384.704 129.486C386.771 127.419 387.102 124.08 385.316 121.633C383.349 118.921 379.546 118.326 376.851 120.293V120.277ZM362.897 130.593L362.765 130.693C362.484 130.908 362.186 131.156 361.922 131.404C359.062 134.247 359.045 138.876 361.889 141.737C364.733 144.597 369.362 144.613 372.222 141.77L372.338 141.654C374.851 139.158 375.231 135.124 373.082 132.164C370.701 128.907 366.138 128.213 362.881 130.593H362.897ZM348.613 140.53L348.464 140.629C348.018 140.943 347.555 141.34 347.158 141.753C343.686 145.357 343.785 151.078 347.373 154.566C350.977 158.038 356.698 157.939 360.186 154.351L360.302 154.236C363.261 151.177 363.741 146.366 361.194 142.762C358.318 138.678 352.68 137.686 348.596 140.563L348.613 140.53ZM344.314 168.007L344.447 167.908C344.876 167.594 345.339 167.214 345.72 166.817C349.241 163.196 349.159 157.41 345.538 153.888C341.917 150.367 336.131 150.45 332.609 154.07L332.493 154.186C329.484 157.278 329.005 162.171 331.584 165.825C334.494 169.942 340.198 170.917 344.314 168.007ZM329.567 177.134C330.344 176.704 331.088 176.092 331.667 175.332C333.882 172.438 333.32 168.289 330.427 166.09C327.533 163.874 323.384 164.436 321.185 167.33L321.086 167.462C319.565 169.446 319.267 172.223 320.523 174.571C322.243 177.762 326.227 178.936 329.418 177.216L329.567 177.134V177.134ZM392.144 62.6598C393.748 63.7344 395.93 63.3045 397.005 61.7008L397.12 61.519C398.013 60.1798 397.898 58.3612 396.74 57.1543C395.401 55.7655 393.202 55.7325 391.813 57.0716L391.665 57.2204C391.499 57.3858 391.317 57.5842 391.185 57.7826C390.111 59.3862 390.54 61.5686 392.144 62.6432V62.6598ZM377.298 80.598C379.827 82.3505 383.299 81.7222 385.051 79.1927L385.167 79.0273C386.672 76.8615 386.457 73.8856 384.539 71.9513C382.373 69.7689 378.852 69.7689 376.686 71.9347L376.537 72.0835C376.306 72.315 376.074 72.5795 375.876 72.8606C374.123 75.3901 374.751 78.862 377.281 80.6145L377.298 80.598ZM362.6 98.2551C365.923 100.619 370.552 99.8423 372.916 96.5192L373.032 96.3538C375.099 93.444 374.818 89.3769 372.189 86.7978C369.279 83.9376 364.6 83.9872 361.757 86.897L361.608 87.0458C361.36 87.3103 361.079 87.6245 360.864 87.9386C358.5 91.2617 359.277 95.8909 362.6 98.2551V98.2551ZM346.927 102.24C346.629 102.537 346.315 102.917 346.067 103.265C343.207 107.266 344.116 112.821 348.117 115.681C352.118 118.541 357.673 117.632 360.533 113.631L360.649 113.465C363.162 109.96 362.815 105.034 359.624 101.925C356.119 98.5031 350.481 98.5692 347.059 102.091L346.91 102.24H346.927ZM331.931 116.904L331.782 117.053C331.303 117.532 330.824 118.095 330.443 118.657C326.988 123.683 328.261 130.544 333.287 133.999C338.313 137.455 345.174 136.182 348.629 131.156L348.745 130.99C351.672 126.725 351.275 120.839 347.505 117.02C343.24 112.688 336.263 112.639 331.931 116.921V116.904ZM332.311 150.764L332.46 150.615C332.923 150.152 333.386 149.606 333.766 149.044C337.271 143.985 335.998 137.041 330.939 133.553C325.88 130.048 318.936 131.321 315.448 136.38L315.332 136.545C312.34 140.86 312.753 146.845 316.589 150.714C320.92 155.079 327.947 155.095 332.311 150.764V150.764ZM315.266 151.26C311.348 149.193 306.487 150.681 304.404 154.616L304.305 154.798C302.883 157.493 303.081 160.882 305.065 163.444C307.777 166.916 312.803 167.545 316.275 164.833L316.44 164.701C317.3 164.023 318.06 163.147 318.606 162.122C320.672 158.203 319.184 153.343 315.249 151.26H315.266ZM347.323 56.741C348.778 57.3692 350.481 56.7079 351.109 55.2365L351.176 55.0712C351.705 53.8643 351.324 52.4093 350.217 51.6158C348.927 50.6899 347.141 50.9875 346.232 52.2771L346.133 52.4094C346.017 52.5747 345.918 52.7565 345.835 52.9384C345.207 54.3933 345.868 56.0962 347.34 56.7244L347.323 56.741ZM338.015 73.4392C340.313 74.4808 343.025 73.4392 344.066 71.1411L344.132 70.9758C345.025 69.0084 344.414 66.6277 342.578 65.3546C340.512 63.9163 337.668 64.4288 336.23 66.5119L336.131 66.6607C335.982 66.8757 335.833 67.1402 335.717 67.3882C334.676 69.6862 335.717 72.3976 338.015 73.4392V73.4392ZM328.79 89.8895C331.832 91.3113 335.453 89.9887 336.858 86.9466L336.924 86.7978C338.164 84.136 337.321 80.8956 334.808 79.2092C332.03 77.341 328.261 78.0684 326.393 80.846L326.293 80.9948C326.128 81.2428 325.963 81.5403 325.831 81.8214C324.409 84.8635 325.731 88.4842 328.773 89.8895H328.79ZM326.938 93.2952C323.582 91.0468 319.052 91.9561 316.82 95.2957L316.721 95.4445C316.523 95.7421 316.341 96.0728 316.175 96.4034C314.456 100.057 316.027 104.405 319.68 106.125C323.334 107.844 327.682 106.274 329.402 102.62L329.468 102.471C330.972 99.2636 329.964 95.3453 326.922 93.3118L326.938 93.2952ZM306.801 109.531L306.702 109.679C306.388 110.126 306.09 110.655 305.859 111.184C303.825 115.747 305.875 121.104 310.438 123.137C315.002 125.171 320.358 123.121 322.392 118.558L322.458 118.392C324.194 114.507 322.987 109.828 319.383 107.299C315.283 104.438 309.645 105.447 306.801 109.531V109.531ZM299.461 139.124C303.61 142.001 309.298 140.96 312.174 136.826L312.274 136.678C312.571 136.231 312.869 135.719 313.1 135.223C315.167 130.61 313.1 125.204 308.504 123.137C303.891 121.071 298.485 123.137 296.419 127.733L296.352 127.882C294.583 131.817 295.807 136.578 299.477 139.124H299.461ZM298.469 139.769C294.997 138.678 291.293 140.612 290.202 144.101L290.153 144.266C289.409 146.647 290.07 149.375 292.054 151.127C294.765 153.525 298.915 153.277 301.312 150.565L301.428 150.433C302.023 149.755 302.503 148.928 302.784 148.019C303.875 144.547 301.941 140.844 298.452 139.753L298.469 139.769ZM321.086 21.4763C322.97 21.9392 324.872 20.7984 325.335 18.9137L325.384 18.7153C325.764 17.1612 325.037 15.4914 323.532 14.7474C321.813 13.9042 319.713 14.6151 318.87 16.3511L318.771 16.5329C318.672 16.7479 318.573 16.9959 318.523 17.2273C318.06 19.1121 319.201 21.0134 321.086 21.4763ZM313.282 43.4154C316.258 44.1925 319.3 42.4235 320.094 39.4475L320.143 39.2492C320.805 36.7031 319.598 33.9752 317.134 32.8178C314.357 31.5117 311.05 32.7021 309.744 35.4796L309.661 35.6615C309.529 35.9591 309.397 36.2898 309.314 36.6204C308.537 39.5963 310.306 42.6384 313.282 43.432V43.4154ZM305.512 65.0405C309.446 66.1317 313.53 63.8171 314.621 59.8822L314.671 59.6838C315.63 56.245 313.96 52.5251 310.604 51.0041C306.884 49.3177 302.519 50.9545 300.833 54.6744L300.75 54.8728C300.601 55.2034 300.453 55.6002 300.353 55.9639C299.262 59.8988 301.577 63.9824 305.512 65.0736V65.0405ZM297.873 86.3845C302.602 87.7071 307.512 84.9461 308.835 80.2177L308.884 80.0193C310.058 75.853 308.041 71.3561 303.974 69.5209C299.494 67.5039 294.236 69.5044 292.219 73.9683L292.136 74.1667C291.971 74.5469 291.789 75.0098 291.674 75.4232C290.351 80.1516 293.112 85.0619 297.84 86.3845H297.873ZM290.186 108.671C296.088 110.192 302.106 106.654 303.627 100.752L303.676 100.553C304.983 95.5437 302.585 90.154 297.741 87.8559C292.252 85.2437 285.689 87.5914 283.076 93.0803L282.994 93.2622C282.713 93.8739 282.448 94.5683 282.283 95.2296C280.762 101.132 284.3 107.15 290.202 108.671H290.186ZM287.838 109.068C281.886 107.514 275.802 111.068 274.248 117.02L274.198 117.218C272.859 122.311 275.289 127.783 280.216 130.098C285.771 132.71 292.401 130.329 295.013 124.774L295.096 124.592C295.377 123.997 295.625 123.319 295.79 122.674C297.344 116.722 293.79 110.638 287.838 109.084V109.068ZM279.142 131.073C274.744 130.461 270.693 133.536 270.082 137.934L270.049 138.149C269.635 141.158 270.974 144.299 273.719 146.019C277.455 148.366 282.382 147.226 284.73 143.489L284.845 143.307C285.424 142.381 285.837 141.29 285.986 140.15C286.598 135.752 283.523 131.701 279.125 131.089L279.142 131.073ZM276.943 31.2968C278.53 31.396 279.886 30.1891 279.985 28.602V28.4366C280.067 27.114 279.224 25.874 277.902 25.5103C276.381 25.0804 274.81 25.9732 274.38 27.4942L274.331 27.6596C274.281 27.8414 274.248 28.0564 274.231 28.2548C274.132 29.8419 275.339 31.1976 276.926 31.2968H276.943ZM273.901 50.1774C276.43 50.3593 278.613 48.4745 278.811 45.945V45.7797C278.976 43.6304 277.588 41.5968 275.438 41.0347C273.008 40.3899 270.511 41.8448 269.867 44.2917L269.817 44.457C269.751 44.7215 269.701 45.0026 269.685 45.2837C269.503 47.7967 271.388 49.9955 273.917 50.1939L273.901 50.1774ZM270.859 68.7935C274.198 69.0911 277.141 66.6111 277.439 63.2715V63.1061C277.703 60.1798 275.819 57.4354 272.876 56.6914C269.619 55.8813 266.329 57.8652 265.535 61.1057L265.485 61.271C265.419 61.5686 265.353 61.8992 265.32 62.2134C265.023 65.553 267.502 68.4959 270.842 68.7935H270.859ZM267.866 87.1615C271.884 87.5253 275.438 84.5659 275.802 80.5318V80.3665C276.133 76.8285 273.835 73.5053 270.297 72.6291C266.378 71.6702 262.427 74.0675 261.468 77.9692L261.435 78.1346C261.352 78.4818 261.286 78.862 261.253 79.2257C260.889 83.2432 263.849 86.7978 267.883 87.1615H267.866ZM264.989 106.307C269.982 106.654 274.314 102.901 274.661 97.9079V97.7426C274.975 93.5102 272.247 89.5092 267.982 88.3684C263.154 87.0789 258.211 89.9556 256.921 94.7832L256.872 94.9485C256.74 95.4776 256.624 96.0728 256.591 96.6514C256.244 101.644 259.997 105.976 264.989 106.323V106.307ZM271.322 118.425C271.454 117.913 271.553 117.318 271.603 116.772C271.966 111.729 268.197 107.348 263.154 106.984C258.112 106.621 253.731 110.39 253.367 115.433V115.598C253.036 119.897 255.814 123.964 260.145 125.105C265.023 126.394 270.015 123.468 271.305 118.591L271.355 118.425H271.322ZM259.418 126.047C255.781 126.212 252.97 129.304 253.135 132.941V133.123C253.268 135.619 254.805 137.951 257.285 138.926C260.658 140.265 264.46 138.612 265.8 135.239L265.866 135.074C266.196 134.247 266.362 133.305 266.329 132.346C266.163 128.709 263.072 125.898 259.434 126.063L259.418 126.047Z" fill="white"/>
</g>
<defs>
<clipPath id="clip0_94_46">
<rect width="480" height="373.478" fill="white"/>
</clipPath>
</defs>
</svg>
